<svg id="Component_1_8" data-name="Component 1 – 8" xmlns="http://www.w3.org/2000/svg" width="21.215" height="25.665" viewBox="0 0 21.215 25.665">
  <g id="Icon_ionic-ios-notifications" data-name="Icon ionic-ios-notifications">
    <path id="Path_8" data-name="Path 8" d="M17.7,31.736c1.995,0,3.085-1.411,3.085-3.4H14.6C14.6,30.324,15.694,31.736,17.7,31.736Z" transform="translate(-7.449 -6.07)" fill="#009dd4"/>
    <path id="Path_9" data-name="Path 9" d="M27.021,22.937c-.988-1.3-2.932-2.066-2.932-7.9,0-5.985-2.643-8.39-5.106-8.968-.231-.058-.4-.135-.4-.378V5.508a1.565,1.565,0,1,0-3.13,0v.186c0,.237-.167.321-.4.378-2.47.584-5.106,2.983-5.106,8.968,0,5.831-1.944,6.588-2.932,7.9a1.273,1.273,0,0,0,1.02,2.04H26.008A1.274,1.274,0,0,0,27.021,22.937Z" transform="translate(-6.761 -3.93)" fill="#009dd4"/>
  </g>
  <g id="Ellipse_1" data-name="Ellipse 1" transform="translate(13.215 0.875)" fill="#009dd4" stroke="#fff" stroke-width="2">
    <circle cx="4" cy="4" r="4" stroke="none"/>
    <circle cx="4" cy="4" r="3" fill="none"/>
  </g>
</svg>
