<svg xmlns="http://www.w3.org/2000/svg" width="21.017" height="18.1" viewBox="0 0 21.017 18.1">
  <path id="Path_3231" data-name="Path 3231" d="M16.639,20.089H4.379v1.006A.947.947,0,0,1,3.5,22.1H2.627a.947.947,0,0,1-.876-1.006V13.553L.663,13.241A.99.99,0,0,1,0,12.266v-.724a.474.474,0,0,1,.438-.5H1.751l2.172-5.82A1.763,1.763,0,0,1,5.535,4h9.948a1.763,1.763,0,0,1,1.609,1.219l2.174,5.82h1.314a.474.474,0,0,1,.438.5v.724a.99.99,0,0,1-.663.975l-1.089.312v7.542A.947.947,0,0,1,18.39,22.1h-.876a.947.947,0,0,1-.876-1.006Zm.876-2.011V13.05H3.5v5.028ZM4.8,11.039H16.221a.851.851,0,0,0,.725-.442,1.134,1.134,0,0,0,.088-.937L15.763,6.011H5.254L3.984,9.66a1.134,1.134,0,0,0,.088.937A.851.851,0,0,0,4.8,11.039Zm-.418,3.017q3.044,0,4.1,2.277a.568.568,0,0,1-.01.5.43.43,0,0,1-.376.244H5.254a.947.947,0,0,1-.876-1.006Zm12.26,0v2.011a.947.947,0,0,1-.876,1.006H12.921a.43.43,0,0,1-.375-.245.568.568,0,0,1-.01-.5Q13.593,14.055,16.639,14.056Z" transform="translate(0 -4)" fill="#fff"/>
</svg>
