<svg xmlns="http://www.w3.org/2000/svg" width="52.292" height="39.219" viewBox="0 0 52.292 39.219">
  <path id="Icon_awesome-car" data-name="Icon awesome-car" d="M51.065,15.939H44.95l-1.7-4.249A11.381,11.381,0,0,0,32.631,4.5H19.66A11.384,11.384,0,0,0,9.04,11.69l-1.7,4.249H1.226A1.225,1.225,0,0,0,.038,17.462L.65,19.913a1.225,1.225,0,0,0,1.189.928h2.05a6.491,6.491,0,0,0-2.255,4.9v4.9a6.483,6.483,0,0,0,1.634,4.282v5.522a3.269,3.269,0,0,0,3.268,3.268H9.8a3.269,3.269,0,0,0,3.268-3.268V37.182H39.219v3.268a3.269,3.269,0,0,0,3.268,3.268h3.268a3.269,3.269,0,0,0,3.268-3.268V34.928a6.479,6.479,0,0,0,1.634-4.282v-4.9a6.493,6.493,0,0,0-2.254-4.9h2.05a1.225,1.225,0,0,0,1.189-.928l.613-2.451a1.226,1.226,0,0,0-1.19-1.523ZM15.108,14.118a4.9,4.9,0,0,1,4.552-3.081H32.631a4.9,4.9,0,0,1,4.552,3.081l2.036,5.089H13.073l2.036-5.089ZM9.8,30.625a3.083,3.083,0,0,1-3.268-3.258A3.083,3.083,0,0,1,9.8,24.109c1.961,0,4.9,2.932,4.9,4.887S11.766,30.625,9.8,30.625Zm32.682,0c-1.961,0-4.9.326-4.9-1.629s2.941-4.887,4.9-4.887a3.083,3.083,0,0,1,3.268,3.258,3.083,3.083,0,0,1-3.268,3.258Z" transform="translate(0 -4.5)" fill="#fff"/>
</svg>
