<svg id="Group_462" data-name="Group 462" xmlns="http://www.w3.org/2000/svg" width="49.013" height="45.927" viewBox="0 0 49.013 45.927">
  <path id="Path_3219" data-name="Path 3219" d="M0,0H49.013V45.927H0Z" fill="none"/>
  <path id="Path_3220" data-name="Path 3220" d="M41.44,20.745H39.249V11.873H41.44V5.218h4.382v6.655h2.191v8.873H45.822V36.273a6.574,6.574,0,1,1-13.147,0V27.4H28.293V38.491h2.191v4.436H2V38.491H4.191V5.218A2.2,2.2,0,0,1,6.382,3H26.1a2.2,2.2,0,0,1,2.191,2.218V22.964h4.382A4.41,4.41,0,0,1,37.058,27.4v8.873a2.191,2.191,0,1,0,4.382,0ZM23.911,38.491V7.436H8.573V38.491ZM17.338,20.745h6.573L15.147,34.055V25.182H8.573l8.764-13.309Z" fill="#6c757d"/>
</svg>
