<svg xmlns="http://www.w3.org/2000/svg" width="17.727" height="15.458" viewBox="0 0 17.727 15.458">
  <path id="Path_3220" data-name="Path 3220" d="M17.195,9.87H16.35V6.435h.844V3.859h1.688V6.435h.844V9.87h-.844v6.012a2.533,2.533,0,1,1-5.065,0V12.447H12.13v4.294h.844v1.718H2V16.741h.844V3.859A.852.852,0,0,1,3.688,3h7.6a.852.852,0,0,1,.844.859v6.87h1.688a1.7,1.7,0,0,1,1.688,1.718v3.435a.844.844,0,1,0,1.688,0Zm-6.753,6.87V4.718H4.532V16.741ZM7.909,9.87h2.532L7.065,15.023V11.588H4.532L7.909,6.435Z" transform="translate(-2 -3)" fill="#fff"/>
</svg>
